<svg width="49" height="30" viewBox="0 0 49 30" fill="none" xmlns="http://www.w3.org/2000/svg">
<path d="M43.1803 18.3383C43.1564 18.3383 43.1345 18.344 43.1107 18.344C43.5493 17.3285 43.7953 16.2107 43.7953 15.0359C43.7953 10.425 40.058 6.69019 35.4479 6.69019C33.8186 6.69019 32.3033 7.16237 31.0185 7.97021C29.2805 3.74615 25.1287 0.768007 20.2777 0.768007C13.8634 0.768007 8.66345 5.97054 8.66345 12.3848C8.66345 12.8684 8.7027 13.3434 8.76044 13.8128C8.72773 13.8128 8.69617 13.8071 8.66345 13.8071C4.36289 13.8071 0.876404 17.2944 0.876404 21.595C0.876404 25.8955 4.36289 29.382 8.66345 29.382H43.1803C46.2305 29.382 48.7032 26.9096 48.7032 23.8595C48.7032 20.8096 46.2305 18.3383 43.1803 18.3383Z" fill="white"/>
</svg>
